#!OML:ASF H:\Terrain\Patient Classification 1\Animal2\Wednesday\Animal2.ASF
:FULLY-SPECIFIED
:DEGREES
596
root 12.8119 18.0804 -22.1076 9.03628 -22.3866 0.273711
lowerback 3.97827 -2.60429 0.325931
upperback -5.5559 -3.49885 0.0117923
thorax -8.07392 -1.74783 0.213954
lowerneck 11.8743 6.74535 13.8784
upperneck -25.3993 6.9189 -22.9289
head -8.17104 4.43259 -11.2753
rclavicle 4.86339e-014 3.77691e-015
rhumerus -32.4634 -9.29568 -51.5109
rradius 52.5611
rwrist 17.6077
rhand -11.4453 13.3401
rfingers 7.12502
rthumb 14.5915 -16.1267
lclavicle 4.86339e-014 3.77691e-015
lhumerus -31.8165 -7.72302 49.7709
lradius 43.3545
lwrist 13.4197
lhand -25.5811 26.1376
lfingers 7.12502
lthumb 0.950369 56.1152
rfemur -12.8701 -5.15792 20.82
rtibia 24.629
rfoot -15.5996 7.21983
rtoes 27.2483
lfemur -11.1997 -2.12348 -20.3314
ltibia 20.9709
lfoot -13.1314 6.51022
ltoes -29.0313
597
root 12.7954 18.0788 -22.1014 9.18179 -22.4386 -0.111373
lowerback 3.78169 -2.6463 0.52634
upperback -5.50991 -3.53041 0.148863
thorax -7.91288 -1.77174 0.237654
lowerneck 12.071 6.81628 13.6973
upperneck -25.905 6.93657 -22.9223
head -8.38323 4.4597 -11.3111
rclavicle -5.8702e-014 -4.67144e-015
rhumerus -33.2066 -8.81274 -53.0657
rradius 52.8577
rwrist 16.951
rhand -11.0943 13.499
rfingers 7.12502
rthumb 14.9296 -15.943
lclavicle -5.8702e-014 -4.67144e-015
lhumerus -32.4783 -8.19466 50.6876
lradius 43.4856
lwrist 13.4825
lhand -25.6437 25.9552
lfingers 7.12502
lthumb 0.889879 55.9331
rfemur -12.7695 -5.3197 21.2158
rtibia 24.5152
rfoot -15.31 7.64164
rtoes 27.308
lfemur -11.1835 -2.11768 -19.941
ltibia 21.0752
lfoot -13.3532 6.75368
ltoes -28.5426
598
root 12.7792 18.0781 -22.0921 9.17471 -22.4353 -0.40775
lowerback 3.6887 -2.67114 0.60091
upperback -5.4783 -3.54503 0.340632
thorax -7.81653 -1.77734 0.392216
lowerneck 12.2022 6.82256 13.6201
upperneck -26.2238 6.84963 -23.133
head -8.5258 4.44829 -11.4252
rclavicle 1.27478e-014 -2.78299e-015
rhumerus -34.0443 -8.76133 -54.5488
rradius 52.7206
rwrist 16.7667
rhand -10.6683 13.4411
rfingers 7.12502
rthumb 15.34 -15.9699
lclavicle 1.27478e-014 -2.78299e-015
lhumerus -33.2659 -8.56934 52.124
lradius 43.4517
lwrist 13.4057
lhand -25.4867 26.2944
lfingers 7.12502
lthumb 1.0415 56.2716
rfemur -12.4992 -5.57837 21.5002
rtibia 24.3183
rfoot -14.9744 8.18417
rtoes 28.2108
lfemur -11.0576 -2.33125 -19.6287
ltibia 21.2664
lfoot -13.6389 6.92642
ltoes -26.8545
599
root 12.7648 18.0759 -22.0859 9.09133 -22.4562 -0.55921
lowerback 3.71031 -2.64606 0.558571
upperback -5.53796 -3.50371 0.501043
thorax -7.88028 -1.74902 0.582424
lowerneck 11.6229 6.70984 14.339
upperneck -25.2749 6.69276 -24.0948
head -8.03333 4.38781 -11.7808
rclavicle -1.44717e-014 2.68359e-015
rhumerus -35.0701 -8.94136 -55.8795
rradius 52.0241
rwrist 16.9449
rhand -10.5538 14.03
rfingers 7.12502
rthumb 15.4503 -15.3725
lclavicle -1.44717e-014 2.68359e-015
lhumerus -34.2133 -9.00788 53.9519
lradius 43.3388
lwrist 13.5062
lhand -25.1542 26.225
lfingers 7.12502
lthumb 1.36268 56.2004
rfemur -12.2087 -5.57891 21.6331
rtibia 24.1237
rfoot -14.6288 8.58151
rtoes 29.8815
lfemur -10.9294 -2.69369 -19.4725
ltibia 21.445
lfoot -13.8437 7.36871
ltoes -25.0889
600
root 12.7509 18.0761 -22.0815 8.96417 -22.5781 -0.791779
lowerback 3.864 -2.60144 0.663991
upperback -5.60122 -3.42979 0.571563
thorax -8.04068 -1.71552 0.600383
lowerneck 12.4558 6.70156 13.6413
upperneck -25.8521 6.67094 -23.4793
head -8.47107 4.4088 -11.5423
rclavicle -2.7833e-014 3.97569e-015
rhumerus -36.2287 -8.88545 -57.507
rradius 51.2549
rwrist 16.8589
rhand -10.6741 14.0779
rfingers 7.12502
rthumb 15.3344 -15.3335
lclavicle -2.7833e-014 3.97569e-015
lhumerus -35.338 -9.17416 55.8616
lradius 43.2524
lwrist 13.572
lhand -24.4341 25.5885
lfingers 7.12502
lthumb 2.05813 55.5583
rfemur -11.9098 -5.67851 21.8418
rtibia 24.0379
rfoot -14.4145 9.02987
rtoes 30.856
lfemur -10.6582 -2.81979 -19.2761
ltibia 21.521
lfoot -13.7883 7.9429
ltoes -25.431
601
root 12.7392 18.081 -22.0692 8.75341 -22.7711 -0.996953
lowerback 4.01508 -2.52771 0.859186
upperback -5.5607 -3.31539 0.540477
thorax -8.09899 -1.6711 0.453318
lowerneck 12.5708 6.61156 13.5674
upperneck -25.9082 6.55509 -23.3535
head -8.55096 4.35023 -11.4937
rclavicle -7.13171e-014 7.40473e-015
rhumerus -37.32 -8.84486 -59.3305
rradius 50.4911
rwrist 16.7833
rhand -10.2154 13.7055
rfingers 7.12502
rthumb 15.7763 -15.6716
lclavicle -7.13171e-014 7.40473e-015
lhumerus -36.2494 -9.11404 57.79
lradius 42.9243
lwrist 13.5485
lhand -23.4335 25.3511
lfingers 7.12502
lthumb 3.02448 55.3094
rfemur -11.5976 -6.13138 21.9843
rtibia 24.0863
rfoot -14.4248 9.64057
rtoes 29.742
lfemur -10.2113 -2.67316 -19.1509
ltibia 21.4828
lfoot -13.7569 8.2483
ltoes -26.5978
602
root 12.7294 18.0796 -22.0532 8.50921 -22.8918 -0.938097
lowerback 4.0794 -2.47488 0.815385
upperback -5.51187 -3.24991 0.493064
thorax -8.0838 -1.63747 0.422254
lowerneck 11.7619 6.52288 14.2352
upperneck -25.1303 6.4545 -23.9788
head -8.08222 4.27513 -11.7105
rclavicle -2.62582e-014 7.00716e-015
rhumerus -38.2679 -8.95536 -60.9422
rradius 49.4244
rwrist 17.0745
rhand -9.60378 14.2073
rfingers 7.12502
rthumb 16.3652 -15.1223
lclavicle -2.62582e-014 7.00716e-015
lhumerus -37.1907 -9.09602 59.9684
lradius 42.6923
lwrist 13.8246
lhand -22.7248 25.7597
lfingers 7.12502
lthumb 3.70884 55.7072
rfemur -11.3713 -6.34439 21.8807
rtibia 24.2033
rfoot -14.5587 9.85983
rtoes 28.4686
lfemur -9.82421 -2.72908 -19.2672
ltibia 21.3867
lfoot -13.7449 8.47461
ltoes -26.5755
603
root 12.7187 18.0752 -22.0409 8.18962 -22.9389 -0.680808
lowerback 4.1698 -2.45055 0.498868
upperback -5.40533 -3.24478 0.432628
thorax -8.00649 -1.61759 0.535179
lowerneck 11.6348 6.66141 13.7994
upperneck -25.476 6.60064 -23.4942
head -8.1887 4.32849 -11.4681
rclavicle -6.3212e-014 -1.46604e-014
rhumerus -39.0344 -9.14007 -62.4256
rradius 48.32
rwrist 17.5365
rhand -9.61087 14.4797
rfingers 7.12502
rthumb 16.3583 -14.8504
lclavicle -6.3212e-014 -1.46604e-014
lhumerus -38.2657 -8.97346 62.2926
lradius 42.8342
lwrist 14.4522
lhand -22.6139 25.5659
lfingers 7.12502
lthumb 3.81598 55.5115
rfemur -11.1177 -6.17183 21.6101
rtibia 24.3331
rfoot -14.5988 9.71002
rtoes 28.8273
lfemur -9.4526 -2.97452 -19.5582
ltibia 21.2919
lfoot -13.5637 8.94398
ltoes -27.104
604
root 12.7088 18.0683 -22.0308 7.86612 -22.991 -0.616611
lowerback 4.30445 -2.45654 0.375805
upperback -5.23953 -3.26195 0.404576
thorax -7.90071 -1.61912 0.577231
lowerneck 10.5965 6.68908 14.4625
upperneck -24.6684 6.65699 -24.0409
head -7.63801 4.30937 -11.6347
rclavicle 3.72566e-015 1.11816e-014
rhumerus -39.7593 -9.13228 -63.9238
rradius 47.7094
rwrist 17.8963
rhand -9.24428 14.0578
rfingers 7.12502
rthumb 16.7113 -15.2429
lclavicle 3.72566e-015 1.11816e-014
lhumerus -39.5009 -8.75137 64.6418
lradius 43.136
lwrist 15.2255
lhand -23.855 23.7023
lfingers 7.12502
lthumb 2.61744 53.666
rfemur -10.7782 -6.02129 21.5229
rtibia 24.4773
rfoot -14.6819 9.60167
rtoes 29.2277
lfemur -9.00476 -3.03203 -19.6569
ltibia 21.1921
lfoot -13.4378 9.35245
ltoes -28.6804
605
root 12.7033 18.059 -22.0215 7.68914 -22.9696 -0.840198
lowerback 4.23915 -2.49262 0.592018
upperback -4.95969 -3.28887 0.435296
thorax -7.57213 -1.64419 0.479278
lowerneck 10.6398 6.7236 14.256
upperneck -25.3491 6.65611 -23.6691
head -7.9011 4.28865 -11.5277
rclavicle -6.74781e-015 -2.18663e-015
rhumerus -40.3181 -9.26154 -65.3346
rradius 47.4681
rwrist 17.9395
rhand -8.39074 14.0783
rfingers 7.12502
rthumb 17.5328 -15.1511
lclavicle -6.74781e-015 -2.18663e-015
lhumerus -40.4958 -8.25411 66.8606
lradius 43.4
lwrist 15.9292
lhand -24.4652 22.3304
lfingers 7.12502
lthumb 2.0281 52.3005
rfemur -10.5303 -5.97778 21.7311
rtibia 24.6547
rfoot -15.008 9.4462
rtoes 28.1869
lfemur -8.59158 -2.98899 -19.4482
ltibia 21.0511
lfoot -13.5391 9.34845
ltoes -28.9189
